<?xml version="1.0" encoding="utf-8"?><!-- Uploaded to: SVG Repo, www.svgrepo.com, Generator: SVG Repo Mixer Tools -->
<svg width="800px" height="800px" viewBox="0 0 24 24" fill="none" xmlns="http://www.w3.org/2000/svg">
<path d="M17 8.25H19.75V7.82843L19.7502 7.74838C19.7511 7.42271 19.7521 7.07122 19.6168 6.74452C19.4815 6.41783 19.2322 6.17 19.0013 5.94038L18.9445 5.88389L16.1161 3.05546L16.0596 2.99875C15.83 2.7678 15.5822 2.51854 15.2555 2.38322C14.9288 2.2479 14.5773 2.24891 14.2516 2.24985L14.1716 2.25001L13.75 2.25001V5C13.75 5.96401 13.7516 6.61157 13.8165 7.09461C13.8786 7.55607 13.9858 7.75357 14.1161 7.88388C14.2464 8.0142 14.4439 8.12142 14.9054 8.18346C15.3884 8.24841 16.036 8.25 17 8.25Z" fill="#000000"/>
<path d="M8.948 2.25001L12.25 2.25001L12.25 5.052C12.25 5.95048 12.2499 6.6997 12.3299 7.29448C12.4143 7.92227 12.6 8.48907 13.0555 8.94454C13.5109 9.40001 14.0777 9.58568 14.7055 9.67009C15.3003 9.75005 16.0495 9.75003 16.948 9.75L19.75 9.75L19.75 17.052C19.75 17.9505 19.7501 18.6997 19.6701 19.2945C19.5857 19.9223 19.4 20.4891 18.9445 20.9446C18.4891 21.4 17.9223 21.5857 17.2945 21.6701C16.6997 21.7501 15.9505 21.75 15.052 21.75H8.94801C8.04953 21.75 7.30031 21.7501 6.70553 21.6701C6.2422 21.6078 5.8121 21.4904 5.43545 21.25H10C11.2426 21.25 12.25 20.2426 12.25 19C12.25 17.7574 11.2426 16.75 10 16.75H4.25V6.94794C4.24997 6.04949 4.24995 5.30029 4.32992 4.70553C4.41432 4.07773 4.59999 3.51093 5.05546 3.05546C5.51093 2.59999 6.07773 2.41432 6.70553 2.32992C7.30031 2.24995 8.04953 2.24998 8.948 2.25001Z" fill="#000000"/>
<path d="M4 18C3.44772 18 3 18.4477 3 19C3 19.5523 3.44772 20 4 20H10C10.5523 20 11 19.5523 11 19C11 18.4477 10.5523 18 10 18H4Z" fill="#000000"/>
</svg>