<?xml version="1.0" encoding="utf-8"?><!-- Uploaded to: SVG Repo, www.svgrepo.com, Generator: SVG Repo Mixer Tools -->
<svg width="800px" height="800px" viewBox="0 0 24 24" fill="none" xmlns="http://www.w3.org/2000/svg">
<path fill-rule="evenodd" clip-rule="evenodd" d="M12.0416 4.25H11.9584C10.5892 4.24999 9.5043 4.24998 8.63794 4.33812C7.7503 4.42841 7.00926 4.61739 6.36104 5.05052C5.84239 5.39707 5.39707 5.84239 5.05052 6.36104C4.61739 7.00926 4.42841 7.7503 4.33812 8.63794C4.24998 9.5043 4.24999 10.5892 4.25 11.9584V12.0416C4.24999 13.4108 4.24998 14.4957 4.33812 15.3621C4.42841 16.2497 4.61739 16.9907 5.05052 17.639C5.39707 18.1576 5.84239 18.6029 6.36104 18.9495C7.00926 19.3826 7.7503 19.5716 8.63794 19.6619C9.5043 19.75 10.5892 19.75 11.9584 19.75H12.0416C13.4108 19.75 14.4957 19.75 15.3621 19.6619C16.2497 19.5716 16.9907 19.3826 17.639 18.9495C18.1576 18.6029 18.6029 18.1576 18.9495 17.639C19.3826 16.9907 19.5716 16.2497 19.6619 15.3621C19.75 14.4957 19.75 13.4108 19.75 12.0416V11.9584C19.75 10.5892 19.75 9.5043 19.6619 8.63794C19.5716 7.7503 19.3826 7.00926 18.9495 6.36104C18.6029 5.84239 18.1576 5.39707 17.639 5.05052C16.9907 4.61739 16.2497 4.42841 15.3621 4.33812C14.4957 4.24998 13.4108 4.24999 12.0416 4.25ZM14.8284 12.75C15.2426 12.75 15.5784 12.4142 15.5784 12C15.5784 11.5858 15.2426 11.25 14.8284 11.25H9.17157C8.75736 11.25 8.42157 11.5858 8.42157 12C8.42157 12.4142 8.75736 12.75 9.17157 12.75L14.8284 12.75Z" fill="#000000"/>
</svg>