<?xml version="1.0" encoding="utf-8"?><!-- Uploaded to: SVG Repo, www.svgrepo.com, Generator: SVG Repo Mixer Tools -->
<svg width="800px" height="800px" viewBox="0 0 24 24" fill="none" xmlns="http://www.w3.org/2000/svg">
<path fill-rule="evenodd" clip-rule="evenodd" d="M19.9677 17.3526C19.9369 16.7959 19.79 16.0488 19.5625 14.9117L19.5194 14.6961C19.4111 14.1546 19.7623 13.6277 20.3039 13.5194C20.8454 13.4111 21.3723 13.7623 21.4806 14.3039L21.5237 14.5194C21.5285 14.5435 21.5333 14.5676 21.5381 14.5915C21.7472 15.6367 21.925 16.5254 21.9646 17.2421C22.0067 18.0026 21.9076 18.7589 21.3804 19.402C20.8533 20.045 20.131 20.2905 19.3771 20.3984C18.6665 20.5001 17.7602 20.5001 16.6943 20.5C16.6699 20.5 16.6454 20.5 16.6208 20.5L6.30569 20.5C5.23981 20.5001 4.33345 20.5001 3.62289 20.3984C2.86896 20.2905 2.14673 20.045 1.61958 19.402C1.09242 18.7589 0.993307 18.0026 1.03536 17.2421C1.075 16.5254 1.2528 15.6367 1.46188 14.5915L1.51941 14.3039C1.62773 13.7623 2.15455 13.4111 2.69611 13.5194C3.23767 13.6277 3.58889 14.1546 3.48058 14.6961L3.43747 14.9117C3.21004 16.0488 3.0631 16.7959 3.03231 17.3526C3.00304 17.8819 3.0933 18.045 3.16626 18.134C3.23922 18.223 3.38141 18.3435 3.90623 18.4186C4.45815 18.4976 5.21952 18.5 6.37921 18.5L16.6208 18.5C17.7805 18.5 18.5418 18.4976 19.0938 18.4186C19.6186 18.3435 19.7608 18.223 19.8337 18.134C19.9067 18.045 19.997 17.8819 19.9677 17.3526Z" fill="#000000"/>
<path fill-rule="evenodd" clip-rule="evenodd" d="M15.2071 10.2071C14.8166 10.5976 14.1834 10.5976 13.7929 10.2071L12.5 8.91421L12.5 15.5C12.5 16.0523 12.0523 16.5 11.5 16.5C10.9477 16.5 10.5 16.0523 10.5 15.5L10.5 8.91421L9.2071 10.2071C8.81658 10.5976 8.18341 10.5976 7.79289 10.2071C7.40236 9.81658 7.40236 9.18342 7.79289 8.79289L10.7929 5.79289C11.1834 5.40237 11.8166 5.40237 12.2071 5.79289L15.2071 8.79289C15.5976 9.18342 15.5976 9.81658 15.2071 10.2071Z" fill="#000000"/>
</svg>